<svg width="25" height="25" viewBox="0 0 25 25" fill="none" xmlns="http://www.w3.org/2000/svg">
<rect x="3" y="7" width="18" height="6" fill="#574AE8"/>
<path d="M23.2499 7.46875C23.1239 6.9753 22.9293 6.50194 22.6718 6.0625C22.4245 5.60536 22.1083 5.18902 21.7343 4.82812C21.1921 4.28771 20.55 3.85786 19.8437 3.5625C18.4221 2.97904 16.8278 2.97904 15.4062 3.5625C14.7386 3.84506 14.1253 4.2416 13.5937 4.73437L13.5156 4.82812L12.4999 5.84375L11.4843 4.82812L11.4062 4.73437C10.8745 4.2416 10.2612 3.84506 9.59369 3.5625C8.17205 2.97904 6.57782 2.97904 5.15619 3.5625C4.44991 3.85786 3.80779 4.28771 3.26556 4.82812C2.52394 5.54973 1.99895 6.4644 1.74994 7.46875C1.61746 7.97878 1.55439 8.50435 1.56244 9.03125C1.56244 9.52656 1.62494 10.0203 1.74994 10.5C1.88093 10.9844 2.06979 11.4513 2.31244 11.8906C2.57449 12.3422 2.89496 12.7572 3.26556 13.125L12.4999 22.3594L21.7343 13.125C22.1046 12.7609 22.4218 12.3437 22.6718 11.8906C23.1793 11.0236 23.4438 10.0359 23.4374 9.03125C23.4455 8.50435 23.3825 7.97877 23.2499 7.46875V7.46875ZM21.6874 10.0156C21.5003 10.7296 21.1284 11.3816 20.6093 11.9062L12.4687 20.0313L4.32806 11.9062C4.06278 11.6391 3.83184 11.3399 3.64056 11.0156C3.46057 10.6948 3.31897 10.3539 3.21869 10C3.13862 9.64612 3.09672 9.28468 3.09369 8.92187C3.0958 8.54869 3.13771 8.1768 3.21869 7.8125C3.31603 7.45756 3.45778 7.11632 3.64056 6.79687C3.82806 6.46875 4.05931 6.17187 4.32806 5.90625C4.72946 5.51022 5.20102 5.19232 5.71869 4.96875C6.76183 4.55144 7.92554 4.55144 8.96869 4.96875C9.48431 5.18281 9.94994 5.49687 10.3437 5.89062L12.4687 8.03125L14.5937 5.89062C14.9872 5.49618 15.4544 5.18294 15.9687 4.96875C17.0118 4.55144 18.1755 4.55144 19.2187 4.96875C19.7359 5.19219 20.2077 5.51094 20.6093 5.90625C20.8812 6.16406 21.1093 6.46406 21.2812 6.79687C21.6431 7.4351 21.8316 8.15694 21.8281 8.89062C21.8493 9.26816 21.8178 9.64681 21.7343 10.0156H21.6874V10.0156Z" fill="#574AE8"/>
<path d="M3 6.5L6 4.5H9L10.5 5.5L11.5 6.5L16 4.5H20L22.5 9L21 11.5L18.5 14.5L12 20.5L10 18.5L5 14.5L3 6.5Z" fill="#574AE8"/>
</svg>
